<svg xmlns="http://www.w3.org/2000/svg" width="53.805" height="67.968" viewBox="120.195 1075.036 53.805 67.968"><g data-name="Get Best Prices"><path d="M154.744 1125.875c.49 0 1.06.032 1.675.063.578.028 1.214.054 1.875-.008l5.97 13.797h-12.872l-2.877-5.317c-.624-1.142-2.263-1.142-2.88 0l-2.881 5.317h-12.872l5.976-13.797c.677.068 1.327.036 1.918.008 1.228-.063 2.282-.117 2.881.045.606.163 1.487.737 2.52 1.4 1.03.668 2.276 1.467 3.92 1.467 1.644 0 2.894-.799 3.924-1.468 1.03-.663 1.915-1.236 2.516-1.4v-.007c.303-.077.714-.105 1.207-.1Zm-5.5-46.622c.934.607 2 1.433 3.45 1.822 1.45.389 2.782.202 3.893.15 1.105-.06 1.91.017 2.325.255.42.245.886.9 1.391 1.884.507.99 1.013 2.245 2.073 3.305 1.067 1.061 2.314 1.568 3.298 2.073.99.507 1.648.971 1.892 1.392.24.415.311 1.214.254 2.32-.055 1.111-.244 2.45.15 3.898.387 1.45 1.218 2.511 1.824 3.447.6.931.934 1.67.934 2.15 0 .478-.333 1.21-.934 2.145-.605.93-1.436 1.991-1.825 3.441-.39 1.45-.203 2.791-.149 3.898.057 1.11-.014 1.91-.254 2.326-.244.416-.903.881-1.892 1.386-.984.506-2.23 1.016-3.298 2.078-1.06 1.06-1.566 2.312-2.073 3.301-.49.962-.943 1.6-1.355 1.852l-.546.204c-.447.1-1.053.125-1.815.09-1.111-.06-2.44-.244-3.894.145-1.45.389-2.514 1.215-3.45 1.82-.931.6-1.663.94-2.146.94-.48 0-1.21-.34-2.146-.94-.93-.605-1.995-1.431-3.445-1.82-1.455-.389-2.788-.203-3.893-.145-.814.04-1.455.01-1.91-.109l-.434-.162c-.412-.248-.876-.895-1.377-1.874-.507-.99-1.013-2.24-2.073-3.302-1.063-1.061-2.309-1.57-3.298-2.077-.99-.506-1.648-.97-1.889-1.386-.238-.415-.31-1.216-.257-2.326.059-1.107.243-2.443-.144-3.898-.388-1.45-1.224-2.511-1.825-3.44-.606-.936-.934-1.667-.934-2.147 0-.478.328-1.218.934-2.15.6-.935 1.436-1.996 1.825-3.446.387-1.448.203-2.782.144-3.893-.055-1.106.018-1.91.257-2.324.24-.422.9-.886 1.889-1.392.99-.506 2.235-1.012 3.298-2.073 1.06-1.06 1.566-2.315 2.073-3.306.504-.984.975-1.64 1.39-1.883.416-.238 1.22-.316 2.331-.256 1.106.053 2.444.24 3.894-.149 1.45-.39 2.514-1.216 3.445-1.822.935-.6 1.666-.939 2.146-.939.482 0 1.214.337 2.145.937Zm-2.147-4.217c-1.644 0-2.89.798-3.92 1.468-1.033.668-1.914 1.247-2.52 1.408-.6.159-1.653.1-2.88.037-1.226-.059-2.711-.131-4.133.691-1.423.822-2.1 2.141-2.66 3.234-.56 1.092-1.044 2.037-1.48 2.48-.445.437-1.383.912-2.476 1.471-1.093.56-2.406 1.242-3.228 2.67-.823 1.422-.76 2.898-.697 4.128.06 1.224.122 2.276-.04 2.881-.164.6-.741 1.481-1.41 2.516-.664 1.03-1.458 2.284-1.458 3.928 0 1.644.794 2.89 1.458 3.92.669 1.033 1.247 1.914 1.41 2.52.162.6.1 1.652.04 2.88-.062 1.224-.126 2.701.697 4.123.82 1.428 2.135 2.114 3.228 2.67 1.094.56 2.032 1.034 2.475 1.477.437.438.922 1.381 1.48 2.474.44.858.959 1.856 1.854 2.643l-6.951 16.055a1.64 1.64 0 0 0 1.499 2.294h16.34c.604 0 1.157-.33 1.441-.858l1.905-3.518 1.91 3.518c.285.528.84.858 1.441.858h16.34a1.638 1.638 0 0 0 1.503-2.294l-6.942-16.024c.916-.79 1.444-1.802 1.892-2.674.56-1.093 1.04-2.036 1.477-2.474.444-.443 1.387-.918 2.479-1.477 1.094-.556 2.402-1.242 3.224-2.67.823-1.422.764-2.9.702-4.122-.064-1.229-.127-2.28.035-2.88.163-.607.745-1.488 1.41-2.521.668-1.03 1.458-2.276 1.458-3.92 0-1.645-.79-2.898-1.458-3.928-.665-1.035-1.247-1.915-1.41-2.516-.163-.6-.1-1.657-.035-2.881.062-1.23.122-2.706-.702-4.128-.82-1.428-2.13-2.11-3.224-2.67-1.093-.56-2.036-1.034-2.48-1.471-.436-.443-.916-1.388-1.476-2.48-.56-1.093-1.237-2.412-2.664-3.234-1.423-.822-2.908-.75-4.133-.69-1.227.063-2.28.122-2.88-.037-.601-.161-1.487-.74-2.516-1.408-1.03-.67-2.28-1.47-3.925-1.47Z" fill="#4468e2" fill-rule="evenodd" data-name="Path 77989"/><path d="M155.503 1091.854a1.608 1.608 0 0 0-1.125.493l-16.919 16.822a1.638 1.638 0 1 0 2.308 2.322l16.918-16.823c1.075-1.039.311-2.854-1.182-2.814Z" fill="#4468e2" fill-rule="evenodd" data-name="Path 77990"/><path d="M142.301 1093.783c.962.957.967 2.448.014 3.395a2.396 2.396 0 0 1-3.423-.007c-.961-.959-.961-2.454-.01-3.402.953-.948 2.452-.943 3.419.014Zm2.322-2.313c-2.214-2.203-5.85-2.213-8.061-.014-2.22 2.204-2.209 5.821.008 8.026 2.214 2.204 5.853 2.213 8.07.008 2.214-2.199 2.2-5.816-.013-8.02h-.004Z" fill="#4468e2" fill-rule="evenodd" data-name="Path 77991"/><path d="M155.253 1106.662c.962.958.962 2.457.009 3.406a2.4 2.4 0 0 1-3.418-.009c-.966-.957-.966-2.456-.013-3.404.957-.95 2.46-.95 3.422.007Zm2.326-2.307c-2.218-2.204-5.857-2.213-8.07-.008-2.214 2.199-2.21 5.82.008 8.02 2.214 2.204 5.858 2.213 8.072.014 2.212-2.204 2.203-5.827-.01-8.026Z" fill="#4468e2" fill-rule="evenodd" data-name="Path 77992"/></g></svg>