<svg xmlns="http://www.w3.org/2000/svg" width="72.004" height="72.004" viewBox="3.998 3.998 72.004 72.004"><path d="M65.53 44a6 6 0 1 0 0-8H60.6a20.89 20.89 0 0 0-3.21-7.73l3.49-3.49a6 6 0 1 0-5.66-5.66l-3.48 3.49A21.08 21.08 0 0 0 44 19.4v-4.93a6 6 0 1 0-8 0v4.93a21 21 0 0 0-7.73 3.21l-3.49-3.49a6 6 0 1 0-5.66 5.66l3.49 3.48A21.08 21.08 0 0 0 19.4 36h-4.93a6 6 0 1 0 0 8h4.93a20.89 20.89 0 0 0 3.21 7.73l-3.49 3.49a6 6 0 1 0 5.66 5.66l3.49-3.49A20.89 20.89 0 0 0 36 60.6v4.93a6 6 0 1 0 8 0V60.6a20.94 20.94 0 0 0 3.21-.9A13.47 13.47 0 0 0 47 62c0 7.732 6.268 14 14 14s14-6.268 14-14-6.268-14-14-14a12.82 12.82 0 0 0-1.65.11A20.77 20.77 0 0 0 60.6 44h4.93ZM61 51c6.075 0 11 4.925 11 11s-4.925 11-11 11-11-4.925-11-11 4.925-11 11-11Zm-3-10-.17 1.31a17.74 17.74 0 0 1-2.38 6.84l-.43.21-2.29-2.29-2.12 2.12L52.39 51a14.43 14.43 0 0 0-1.48 1.34l-1.72-1.71-2.12 2.12 2 2c-.22.37-.43.75-.62 1.14a17.63 17.63 0 0 1-6.13 2L41 58v9.06l.67.45a3 3 0 1 1-3.34 0l.67-.45V58l-1.31-.17a17.88 17.88 0 0 1-7.25-2.61l2.49-2.49-2.12-2.12-9.24 9.23.16.79a3 3 0 1 1-2.36-2.36l.79.16 9.23-9.24-2.12-2.12-2.49 2.49a17.88 17.88 0 0 1-2.61-7.25L22 41h-9.06l-.45.67a3 3 0 1 1 0-3.34l.45.67H22l.17-1.31a17.88 17.88 0 0 1 2.61-7.25l2.49 2.49 2.12-2.12-9.23-9.24-.79.16a3 3 0 1 1 2.36-2.36l-.16.79 9.24 9.23 2.12-2.12-2.49-2.49a17.88 17.88 0 0 1 7.25-2.61L39 22v-9.06l-.67-.45a3 3 0 1 1 3.34 0l-.67.45V22l1.31.17a17.88 17.88 0 0 1 7.25 2.61l-2.49 2.49 2.12 2.12 9.24-9.23-.16-.79a3 3 0 1 1 2.36 2.36l-.79-.16-9.23 9.24 2.12 2.12 2.49-2.49a17.83 17.83 0 0 1 2.61 7.25L58 39h9.06l.45-.67a3 3 0 1 1 0 3.34l-.45-.67H58Z" fill="#4468e2" fill-rule="evenodd" data-name="Path 77993"/></svg>