<svg xmlns="http://www.w3.org/2000/svg" width="33" height="33" viewBox="84 1718.95 33 33"><g data-name="Group 18"><path d="M84 1735.4a16.5 16.5 0 1 1 0 .1z" fill="#1c4961" fill-rule="evenodd" data-name="Ellipse 17"/><g data-name="noun_Hotel_3720489"><path d="M100.199 1731.922a6.624 6.624 0 0 0-6.616 6.616 6.624 6.624 0 0 0 6.616 6.617 6.624 6.624 0 0 0 6.616-6.617 6.624 6.624 0 0 0-6.616-6.616Zm0 12.32a5.71 5.71 0 0 1-5.704-5.704 5.71 5.71 0 0 1 5.704-5.703 5.71 5.71 0 0 1 5.704 5.703 5.71 5.71 0 0 1-5.704 5.704Z" fill="#fff" fill-rule="evenodd" data-name="Path 134"/><path d="M100.199 1733.938a4.606 4.606 0 0 0-4.6 4.6c0 2.537 2.063 4.601 4.6 4.601a4.606 4.606 0 0 0 4.601-4.6c0-2.537-2.064-4.601-4.601-4.601Zm0 8.289a3.692 3.692 0 0 1-3.688-3.689 3.692 3.692 0 0 1 3.688-3.688 3.692 3.692 0 0 1 3.689 3.688 3.692 3.692 0 0 1-3.689 3.689Z" fill="#fff" fill-rule="evenodd" data-name="Path 135"/><path d="M111.15 1725.534a.456.456 0 0 0-.456.456v4.64a.837.837 0 0 1-.837.836H108.028a.837.837 0 0 1-.837-.837v-4.639a.456.456 0 1 0-.912 0v4.64c0 .863.63 1.578 1.455 1.719l-.28 11.28c-.009.405.141.787.424 1.077.282.29.66.449 1.065.449.404 0 .783-.16 1.065-.45.283-.289.433-.67.423-1.075l-.28-11.281a1.748 1.748 0 0 0 1.456-1.72v-4.639a.456.456 0 0 0-.457-.456Zm-1.795 18.534a.588.588 0 0 1-.824 0 .57.57 0 0 1-.164-.416l.28-11.274h.592l.28 11.274a.569.569 0 0 1-.164.416Z" fill="#fff" fill-rule="evenodd" data-name="Path 136"/><path d="M108.943 1729.869a.456.456 0 0 0 .456-.457v-3.422a.456.456 0 1 0-.913 0v3.422c0 .253.204.457.457.457Z" fill="#fff" fill-rule="evenodd" data-name="Path 137"/><path d="M94.312 1729.057c0-2.165-1.134-4.578-2.76-4.578-1.627 0-2.76 2.413-2.76 4.578 0 1.55.6 2.758 1.55 3.305l-.28 11.267c-.009.405.142.787.425 1.078.282.289.66.448 1.063.448.407 0 .787-.161 1.07-.454.282-.29.43-.672.417-1.072l-.275-11.268c.95-.547 1.55-1.754 1.55-3.304Zm-4.608 0c0-1.816.932-3.666 1.848-3.666.915 0 1.847 1.85 1.847 3.666 0 1.623-.742 2.713-1.847 2.713s-1.848-1.09-1.848-2.713Zm2.421 14.597a.564.564 0 0 1-.16.412.588.588 0 0 1-.826.003.572.572 0 0 1-.164-.418l.273-10.986a2.56 2.56 0 0 0 .608 0l.27 10.989Z" fill="#fff" fill-rule="evenodd" data-name="Path 138"/></g></g></svg>