<svg xmlns="http://www.w3.org/2000/svg" width="45" height="45" viewBox="1799.546 5060.932 45 45"><path d="M1822.046 5060.932c-12.425 0-22.5 10.075-22.5 22.5 0 12.424 10.075 22.5 22.5 22.5 12.424 0 22.5-10.076 22.5-22.5 0-12.425-10.076-22.5-22.5-22.5Zm12.842 27.826c-.063 1.376-.281 2.315-.6 3.137a6.606 6.606 0 0 1-3.78 3.778c-.82.32-1.76.538-3.135.6-1.378.063-1.818.079-5.327.079s-3.949-.016-5.327-.078c-1.375-.063-2.314-.282-3.136-.6a6.33 6.33 0 0 1-2.288-1.491 6.332 6.332 0 0 1-1.49-2.288c-.32-.822-.538-1.761-.6-3.136-.064-1.379-.08-1.819-.08-5.327 0-3.51.016-3.95.079-5.327.062-1.375.28-2.314.6-3.136a6.33 6.33 0 0 1 1.49-2.289 6.328 6.328 0 0 1 2.289-1.49c.822-.32 1.76-.538 3.136-.6 1.378-.063 1.818-.078 5.327-.078s3.949.015 5.327.078c1.375.062 2.314.28 3.136.6a6.334 6.334 0 0 1 2.288 1.49 6.33 6.33 0 0 1 1.49 2.289c.32.822.538 1.76.601 3.136.063 1.378.078 1.818.078 5.327 0 3.508-.015 3.948-.078 5.326Zm0 0" fill-rule="evenodd" data-name="Instagram"/></svg>