<svg xmlns="http://www.w3.org/2000/svg" width="44" height="44" viewBox="1728.972 5060.432 44 44"><path d="M1750.972 5060.432c-12.148 0-22 9.851-22 22 0 12.148 9.852 22 22 22 12.149 0 22-9.852 22-22 0-12.149-9.851-22-22-22Zm-6.393 33.257h-5.358v-16.12h5.358v16.12Zm-2.679-18.32h-.035c-1.797 0-2.96-1.238-2.96-2.785 0-1.582 1.198-2.785 3.031-2.785 1.833 0 2.96 1.203 2.996 2.785 0 1.547-1.163 2.785-3.032 2.785Zm21.999 18.32h-5.357v-8.623c0-2.167-.776-3.646-2.715-3.646-1.48 0-2.361.998-2.749 1.96-.141.344-.176.826-.176 1.307v9.002h-5.358s.07-14.607 0-16.12h5.358v2.283c.712-1.098 1.986-2.66 4.829-2.66 3.525 0 6.168 2.303 6.168 7.254v9.243Zm0 0" fill-rule="evenodd" data-name="LinkedIn"/></svg>