<svg xmlns="http://www.w3.org/2000/svg" width="70.163" height="70.163" viewBox="1520.999 898 70.163 70.163"><g data-name="Nearby"><path d="M1523.193 946.138a32.888 19.733 0 1 1 0 .1z" fill="#d1e7ff" fill-rule="evenodd" data-name="Ellipse 25"/><path d="M1534.156 946.138a21.925 9.866 0 1 1 0 .1z" fill="#d1e7ff" fill-rule="evenodd" data-name="Ellipse 26"/><path d="M1532.084 947.4c-.482-2.456 0-7.082 8.507-10.524a2.193 2.193 0 0 1 1.644 4.056c-4.034 1.633-6.216 3.738-5.843 5.624.57 2.97 7.236 7.356 19.689 7.356 12.454 0 19.13-4.385 19.733-7.323.372-1.908-1.82-4.013-5.854-5.657a2.193 2.193 0 1 1 1.644-4.056c8.847 3.584 8.902 8.572 8.518 10.546-2.861 14.481-45.199 14.525-48.038-.022Z" fill="#4468e2" fill-rule="evenodd" data-name="Path 78000"/><path d="M1556.081 968.163c-34.861 0-47.446-27.648-20.632-39.707a2.193 2.193 0 0 1 1.798 3.99c-7.476 3.344-11.861 8.497-11.861 13.792 0 9.504 14.054 17.54 30.695 17.54s30.695-8.036 30.695-17.54c0-5.295-4.385-10.448-11.861-13.791a2.193 2.193 0 0 1 1.798-3.99c26.935 12.113 14.02 39.706-20.632 39.706Z" fill="#4468e2" fill-rule="evenodd" data-name="Path 78001"/><path d="M1560.466 945.142h-8.77v-12.06l-6.578-2.192v-10.962a6.578 6.578 0 0 1 6.578-6.578h8.77a6.578 6.578 0 0 1 6.578 6.578v10.962l-6.578 2.193v12.059Z" fill="#d1e7ff" fill-rule="evenodd" data-name="Path 78002"/><path d="M1556.081 900.195a6.578 6.578 0 1 1 0 13.155 6.578 6.578 0 0 1 0-13.155Z" fill="#d1e7ff" fill-rule="evenodd" data-name="Path 78004"/><path d="M1563.36 911.662a8.77 8.77 0 1 0-14.558 0 8.77 8.77 0 0 0-5.876 8.266v10.962c0 .946.604 1.785 1.502 2.083l5.075 1.688v10.48c0 1.211.982 2.193 2.193 2.193h8.77c1.211 0 2.193-.982 2.193-2.192v-10.48l5.075-1.689a2.193 2.193 0 0 0 1.502-2.083v-10.962a8.77 8.77 0 0 0-5.876-8.266Zm-7.279-9.275a4.385 4.385 0 1 1 0 8.77 4.385 4.385 0 0 1 0-8.77Zm8.77 26.925-5.076 1.688a2.193 2.193 0 0 0-1.501 2.083v9.866h-4.385v-9.866c0-.946-.605-1.785-1.502-2.083l-5.076-1.688v-9.384a4.385 4.385 0 0 1 4.385-4.386h8.77a4.385 4.385 0 0 1 4.385 4.386v9.384Z" fill="#4468e2" fill-rule="evenodd" data-name="Path 78003"/></g></svg>