<svg xmlns="http://www.w3.org/2000/svg" width="33" height="33" viewBox="129 1718.95 33 33"><g data-name="Group 17"><path d="M129 1735.4a16.5 16.5 0 1 1 0 .1z" fill="#1c4961" fill-rule="evenodd" data-name="Ellipse 18"/><g data-name="noun_Flight_2335320"><g data-name="Group 16"><g data-name="Group 15"><path d="M145.543 1744.504c-1.1.476-2.201.955-3.301 1.432-.155.067-.31.135-.465.2.242.14.486.278.728.419v-1.635c-.048.114-.094.227-.143.34.44-.418.88-.836 1.323-1.254.26-.245.518-.491.774-.736.165-.154.312-.29.305-.544-.017-.544-.046-1.086-.068-1.63l-.106-2.53c-.022-.505-.034-1.013-.063-1.52v-.025c-.012-.297-.302-.57-.612-.467l-.863.29c-.69.23-1.376.463-2.066.692a3022.062 3022.062 0 0 0-4.677 1.57c-.348.116-.708.218-1.052.353-.005.002-.01.002-.014.005l.612.467v-1.938l-.24.419.556-.406c.467-.344.936-.685 1.403-1.028.629-.46 1.255-.922 1.884-1.381l1.978-1.451 1.69-1.24c.342-.25.68-.5 1.021-.748l.194-.143c.23-.176.19-.452.19-.706v-4.6c0-.063.008-.123.01-.184.003-.055-.007.046-.007.046.005-.014.005-.034.008-.048.007-.039.014-.075.024-.111.017-.063.036-.124.058-.187.026-.082-.046.09.007-.017l.05-.099c.032-.055.068-.109.102-.162.049-.075-.055.066 0-.002.025-.03.049-.056.073-.082.046-.051.097-.097.147-.143l.037-.03c.04-.035-.034.032-.037.028 0-.01.08-.056.092-.063.058-.037.119-.07.182-.102.014-.007.029-.012.043-.02.049-.028-.043.022-.04.018.002-.012.091-.034.106-.04.062-.018.125-.035.188-.05.02-.005.126-.02.049-.01-.07.01-.013.003.002 0 .029-.002.056-.004.082-.004a1.982 1.982 0 0 1 .269.007c.055.002-.046-.007-.046-.007.019.007.046.007.065.012.07.014.138.031.206.053.031.01.06.024.091.031.054.017-.046-.017-.04-.019.007-.002.05.024.057.027.058.029.114.058.167.092.027.016.053.036.08.053.077.05-.022-.02-.022-.02.012 0 .041.034.049.042a1.76 1.76 0 0 1 .23.237c.04.045-.047-.075-.018-.022.032.06.078.113.112.174.014.029.029.055.043.085.008.014.012.029.02.043.029.056-.03-.087-.012-.027.019.063.043.121.06.184a1.849 1.849 0 0 1 .036.16c.015.065-.007-.097-.005-.032.027.455.01.912.01 1.367v3.332c0 .136-.007.276 0 .412.012.193.109.324.259.432l.092.066.384.273 1.386.982c.631.447 1.262.895 1.896 1.342l2.005 1.422c.573.406 1.146.813 1.717 1.22l1.033.732.142.101-.239-.418v2.107l.612-.467-.861-.283c-.692-.23-1.386-.457-2.078-.687l-2.503-.827c-.72-.24-1.443-.477-2.164-.716-.35-.116-.701-.247-1.055-.348-.004-.003-.01-.003-.014-.005-.312-.104-.6.167-.612.467l-.053 1.26c-.036.836-.07 1.67-.107 2.508-.026.616-.05 1.23-.077 1.847-.002.044-.007.087-.005.13a.565.565 0 0 0 .199.402l.653.622c.505.481 1.003.972 1.518 1.441l.032.03c-.049-.114-.095-.228-.143-.342v1.635l.728-.418c-1.1-.477-2.2-.956-3.301-1.432-.155-.068-.31-.135-.464-.2-.233-.102-.53-.076-.663.173-.111.208-.075.554.174.663l3.301 1.432c.155.067.31.135.464.2.165.07.327.095.489 0a.487.487 0 0 0 .24-.418v-1.546c0-.169-.04-.326-.165-.454-.527-.532-1.088-1.033-1.63-1.55-.203-.191-.404-.385-.607-.576.048.114.094.228.143.341.026-.648.055-1.298.082-1.947l.13-3.09.03-.711c-.204.154-.41.312-.612.466.287.095.573.19.86.283.692.23 1.386.457 2.078.687l2.503.827c.72.24 1.444.477 2.165.716.35.116.7.247 1.054.348.005.003.01.003.015.005.302.1.611-.164.611-.466V1737.79a.52.52 0 0 0-.24-.425l-.023-.017c-.494-.356-.994-.704-1.49-1.057-.948-.672-1.896-1.345-2.844-2.015-.943-.667-1.884-1.335-2.827-2.005-.489-.345-.97-.71-1.47-1.042l-.022-.014.239.418v-4.22c0-.283.017-.576-.007-.859-.087-.994-.822-1.881-1.831-2.043a2.273 2.273 0 0 0-1.482.246c-.412.228-.757.6-.944 1.033-.13.305-.2.62-.2.953V1731.635l.239-.418c-.394.29-.79.578-1.185.868l-2.687 1.969a377022.041 377022.041 0 0 1-4.672 3.424l-.128.095c-.15.11-.24.234-.245.43-.002.065 0 .13 0 .196v1.732c0 .3.312.568.612.466l.864-.29 2.065-.692 2.508-.841c.723-.242 1.446-.484 2.17-.728.347-.116.708-.218 1.051-.353.005-.003.01-.003.015-.005l-.612-.467c.026.648.055 1.299.082 1.947l.13 3.09.03.712.142-.341-1.465 1.393-.733.696a.59.59 0 0 0-.203.421c-.005.148 0 .298 0 .445v1.168c0 .172.092.332.24.419.161.094.323.07.488 0 1.1-.477 2.2-.956 3.3-1.432.156-.068.31-.135.465-.2.232-.102.303-.46.174-.663-.157-.242-.413-.281-.662-.172Z" fill="#fff" fill-rule="evenodd" data-name="Path 139"/></g></g></g></g></svg>